PathFileType	4	(X/Y/Z)	c:/Users/goper/Files/vsCode/490R/osim_files/C06/C06_Slow_04.trc
DataRate	CameraRate	NumFrames	NumMarkers	Units                	OrigDataRate	OrigDataStartFrame	OrigNumFrames
250.00	250.00	8	36	mm	250.0	2470	3292
                Frame#	Time	LPSIS			LASIS			LTH1			LTH2			LTH3			LTH4			LLFE			LMFE			LSH1			LSH2			LSH3			LSH4			LLMAL			LMMAL			LCAL			LMTP5			LTOE			LMTP1			RPSIS			RASIS			RTH1			RTH2			RTH3			RTH4			RLFE			RMFE			RSH1			RSH2			RSH3			RSH4			RLMAL			RMMAL			RCAL			RMTP1			RTOE			RMTP5		
		X1	Y1	Z1	X2	Y2	Z2	X3	Y3	Z3	X4	Y4	Z4	X5	Y5	Z5	X6	Y6	Z6	X7	Y7	Z7	X8	Y8	Z8	X9	Y9	Z9	X10	Y10	Z10	X11	Y11	Z11	X12	Y12	Z12	X13	Y13	Z13	X14	Y14	Z14	X15	Y15	Z15	X16	Y16	Z16	X17	Y17	Z17	X18	Y18	Z18	X19	Y19	Z19	X20	Y20	Z20	X21	Y21	Z21	X22	Y22	Z22	X23	Y23	Z23	X24	Y24	Z24	X25	Y25	Z25	X26	Y26	Z26	X27	Y27	Z27	X28	Y28	Z28	X29	Y29	Z29	X30	Y30	Z30	X31	Y31	Z31	X32	Y32	Z32	X33	Y33	Z33	X34	Y34	Z34	X35	Y35	Z35	X36	Y36	Z36

2470	9.87600	-2297.27222	991.75830	150.88588	-2472.24072	966.07190	254.83720	-2398.43286	756.84637	317.46936	-2411.61353	695.27588	317.72351	-2471.61938	766.19513	301.84210	-2475.63184	704.62140	303.42905	-2423.13428	449.78958	287.06250	-2430.25049	426.82202	173.81624	-2295.54346	427.92068	294.02960	-2266.26221	394.64005	290.70300	-2338.31738	380.06866	301.00192	-2304.49829	356.33377	300.57202	-2089.40308	243.51009	241.46774	-2126.74048	239.63887	170.51381	-2060.00049	293.56369	185.75102	-2061.08008	119.37035	266.62000	-2108.44214	71.95358	213.79680	-2095.77393	94.10908	162.41498	-2294.08228	994.67554	79.53682	-2480.06958	980.90265	15.48728	-2430.57666	772.56860	-68.70097	-2449.04419	710.00629	-56.37104	-2498.91675	792.86975	-51.36898	-2510.61694	732.06104	-47.01424	-2520.75903	455.29294	6.23381	-2533.54443	475.52118	111.52500	-2465.02783	380.29794	-12.56027	-2461.23022	333.29440	-10.66545	-2523.34448	370.20438	0.67514	-2514.75806	324.43549	2.23977	-2454.86279	90.85274	49.35192	-2470.23511	114.94966	125.02203	-2386.91602	68.29774	98.27145	0.00000	0.00000	0.00000	-2612.60425	55.94929	89.85202	-2567.96924	33.87964	23.40598
2471	9.88000	-2301.55566	992.58112	150.46793	-2476.29639	967.21875	254.47493	-2404.43799	757.56268	317.34952	-2418.37744	696.25000	317.89334	-2477.50122	767.66571	301.51685	-2481.60132	706.13489	303.56198	-2432.67798	451.00217	286.97028	-2439.82227	428.03027	173.66249	-2305.24585	429.04651	293.48611	-2276.25000	395.91983	290.20566	-2347.98779	381.23587	300.62045	-2314.28003	357.55029	300.15976	-2099.50684	243.67905	240.86571	-2137.07861	240.10176	169.95291	-2069.26221	293.12369	185.03079	-2073.15479	119.20908	266.59100	-2121.16333	72.43133	213.85982	-2108.19507	94.04663	162.39995	-2298.39160	995.52441	79.15248	-2484.00732	981.63171	15.09631	-2433.07471	773.62549	-68.37501	-2451.73999	710.39850	-56.51934	-2502.15601	793.13452	-51.64913	-2513.38159	732.16370	-47.20213	-2521.43945	455.29810	6.05054	-2534.32446	475.45129	111.35921	-2465.54126	380.35587	-12.75677	-2466.47583	331.47849	-10.77479	-2523.91016	370.24472	0.53077	-2515.12207	324.42395	2.14646	-2454.82324	90.91451	49.28408	-2470.35571	115.07086	124.96715	-2386.94189	68.38173	98.25034	0.00000	0.00000	0.00000	-2612.80884	55.98312	89.68299	-2567.98022	33.85315	23.41753
2472	9.88400	-2305.35254	993.70074	150.21114	-2480.20410	968.36365	254.03261	-2410.64160	758.54498	317.27740	-2424.98535	697.29633	317.99020	-2483.33301	769.14056	301.25290	-2488.12549	707.72540	303.42764	-2442.03857	452.21368	286.87823	-2451.24390	429.37497	173.55952	-2314.94287	430.14761	292.98914	-2285.76001	397.01398	289.38211	-2357.50635	382.11890	300.53809	-2323.99390	358.75323	299.75330	-2109.87256	243.61703	240.25755	-2147.43433	240.30853	169.41830	-2078.73682	292.38531	184.45587	-2085.58325	118.90569	266.50824	-2134.07788	72.70484	213.79385	-2120.56030	93.89604	162.36249	-2302.54102	996.43835	78.82602	-2488.12476	982.45203	14.69074	-2436.76270	774.32721	-68.84721	-2454.43628	710.78076	-56.62168	-2505.28540	793.38000	-51.87105	-2516.16431	732.36395	-47.38430	-2522.09351	455.30478	5.85551	-2535.36963	475.52463	111.31031	-2466.56982	380.38049	-13.12978	-2465.88843	332.18170	-10.95349	-2524.32690	370.23816	0.44858	-2515.52026	324.48886	1.98747	-2454.91626	90.94553	49.23658	-2470.43018	115.19795	124.87476	-2387.00610	68.43562	98.26939	0.00000	0.00000	0.00000	-2612.68896	55.92692	89.83433	-2567.99683	33.82337	23.41092
2473	9.88800	-2308.11963	995.14221	149.49759	-2484.12061	969.49524	253.62869	-2416.75903	759.41962	317.18207	-2431.82739	698.48926	318.07724	-2488.87549	770.63000	301.20734	-2494.96851	709.19788	303.61905	-2451.48608	453.54953	286.71152	-2459.24512	430.49857	173.23361	-2324.57886	431.39026	292.35181	-2295.58496	398.26151	288.80856	-2367.12988	383.37946	300.18796	-2333.84497	359.99997	299.36407	-2120.47412	243.35336	239.78258	-2157.46240	240.70357	168.63353	-2088.43188	291.43127	183.96635	-2098.04688	118.44389	266.46704	-2147.22778	72.78793	213.74777	-2133.00317	93.55904	162.07819	-2306.36401	997.60272	78.59943	-2492.16943	983.17133	14.19510	-2439.12329	775.06775	-68.66486	-2457.09790	711.20758	-56.72815	-2508.43823	793.64618	-52.14635	-2518.93994	732.51636	-47.54475	-2522.63745	455.35312	5.63010	-2536.35474	475.16797	111.42610	-2466.55859	380.58380	-13.13736	-2462.83789	333.82712	-11.15574	-2524.77002	370.30127	0.32142	-2515.84473	324.58008	1.84780	-2455.15283	90.92911	49.26542	-2470.57349	115.37370	124.78919	-2387.02515	68.49480	98.21436	0.00000	0.00000	0.00000	-2612.73730	55.93610	89.80273	-2568.03296	33.77690	23.40101
2474	9.89200	-2313.38892	995.64929	149.51863	-2488.15332	970.67603	253.24986	-2422.78760	760.33459	317.10672	-2438.67847	699.70190	318.16925	-2494.50537	772.16876	301.03592	-2501.07593	711.09045	303.07971	-2460.76147	454.89001	286.55542	-2468.99023	431.78354	172.98497	-2334.27124	432.52499	291.72510	-2305.34766	399.39645	288.16257	-2376.94092	384.63086	299.76904	-2343.54858	361.18106	298.95120	-2131.02954	242.94865	239.27109	-2167.83423	240.58488	167.91556	-2098.00317	290.37961	183.28664	-2110.61694	117.77477	266.41626	-2160.37280	72.87209	213.72211	-2147.39185	92.83260	163.05753	-2308.89844	998.94379	77.93189	-2496.00830	983.82251	13.79767	-2441.86914	775.69702	-68.62266	-2460.31055	713.09595	-57.62273	-2511.47925	793.83954	-52.33385	-2521.78345	733.40112	-49.11927	-2523.15552	455.44086	5.45207	-2541.71875	477.55045	112.96660	-2466.95605	380.70251	-13.23928	-2463.12744	333.98560	-11.27987	-2525.24878	370.19760	0.05141	-2516.16797	324.66864	1.71089	-2455.16309	90.99474	49.17488	-2470.68408	115.52622	124.72675	-2387.04565	68.56470	98.18611	0.00000	0.00000	0.00000	-2612.75757	55.94407	89.73009	-2568.03955	33.73328	23.40709
2475	9.89600	-2317.24390	996.63477	149.15999	-2492.04736	971.82086	252.83105	-2428.72437	761.18469	317.04190	-2445.16260	700.70392	318.21292	-2500.29419	773.85712	300.70834	-2507.50732	712.77051	302.88089	-2470.11230	456.31479	286.35080	-2478.57788	432.99393	172.72214	-2343.84155	433.69385	291.11081	-2314.89941	400.39490	287.47269	-2386.63208	385.91736	299.39584	-2353.25073	362.36749	298.58063	-2141.66382	242.38116	238.78946	-2178.49121	240.31462	167.38185	-2107.70117	289.06335	182.75444	-2123.32715	116.97137	266.33823	-2173.14111	72.30958	213.51601	-2160.16479	92.24062	162.95763	-2314.61743	999.30701	77.89145	-2499.98218	984.47803	13.38338	-2445.50024	776.34387	-68.93246	-2463.86963	715.87256	-59.06262	-2514.46484	794.06512	-52.57416	-2525.23511	734.20721	-49.12705	-2523.63794	455.53372	5.24020	-2545.55469	478.44009	113.77729	-2467.25439	380.85999	-13.32666	-2463.37305	334.12152	-11.37811	-2525.60278	370.31998	-0.09625	-2516.40283	324.76724	1.59361	-2455.28467	91.03600	49.17312	-2470.85229	115.64702	124.78131	-2387.01270	68.67876	98.14167	0.00000	0.00000	0.00000	-2612.77612	55.97551	89.68803	-2568.03979	33.71740	23.41393
2476	9.90000	-2319.98755	997.93384	148.52573	-2495.91748	972.95264	252.36266	-2434.73364	762.20221	317.01065	-2451.50781	701.70789	318.26346	-2506.05054	775.50409	300.44064	-2513.92041	714.50055	302.73520	-2479.27930	457.75134	286.15924	-2488.24707	434.34564	172.52420	-2353.35767	434.78610	290.52573	-2324.79858	401.48346	287.02893	-2396.28027	387.10593	298.92017	-2363.08203	363.51825	298.14343	-2152.33569	241.66936	238.27338	-2189.19141	239.90138	166.94475	-2117.51709	287.60110	182.18239	-2136.20728	116.00227	266.25110	-2188.76611	72.27731	213.46039	-2173.18457	91.50896	162.90619	-2318.32422	1000.43781	77.61842	-2504.02783	985.21240	12.95271	-2448.98438	776.96124	-69.00563	-2467.30981	718.33209	-60.47803	-2517.58203	794.30798	-52.81563	-2527.97534	734.36627	-49.43120	-2524.04199	455.62305	5.02958	-2561.50537	483.27509	112.43713	-2468.01782	380.97269	-13.57489	-2463.65259	334.28049	-11.46614	-2525.88989	370.45151	-0.20620	-2516.62476	324.88358	1.44626	-2455.37061	91.07977	49.14226	-2471.04663	115.43812	125.02892	-2387.01392	68.77357	98.14270	0.00000	0.00000	0.00000	-2612.78125	55.98730	89.59091	-2568.02954	33.67660	23.40878
2477	9.90400	-2324.67456	998.68756	148.48642	-2499.85596	974.12677	251.93486	-2440.61353	763.15845	316.96613	-2458.07007	702.91602	318.25458	-2511.84595	777.26129	300.08688	-2520.39722	715.99048	302.94504	-2488.46387	459.23413	285.97937	-2497.95044	435.63507	172.33763	-2362.94238	435.85934	289.95175	-2334.01636	402.13458	286.17905	-2406.01074	388.42337	298.53793	-2372.74854	364.58810	297.75888	-2163.29443	240.77380	237.93355	-2200.04199	239.39102	166.50871	-2127.35156	285.97971	181.66864	-2149.25537	114.95036	266.21793	-2202.28296	71.83220	213.41652	-2186.44312	90.72305	162.85300	-2322.54663	1001.13373	77.19780	-2507.85278	985.76526	12.58650	-2452.47437	777.56989	-68.94131	-2470.28833	719.55493	-61.41723	-2520.64355	794.55200	-53.06034	-2530.48315	734.51831	-49.68138	-2524.37915	455.76248	4.84584	-2570.09912	485.96399	112.62035	-2468.21484	381.19809	-13.64350	-2463.74023	334.54468	-11.55206	-2526.09155	370.61316	-0.31743	-2516.75049	325.01447	1.31082	-2455.35596	91.22031	49.11809	-2471.52417	115.48540	125.20539	-2387.02881	68.86685	98.14259	0.00000	0.00000	0.00000	-2612.91821	56.01594	89.41187	-2568.06470	33.67026	23.41977
